<?xml version="1.0"?>
<!-- Generated by SVGo -->
<svg width="68.102mm" height="49.052mm"
     viewBox="0.000 0.000 68.102 49.052"
     xmlns="http://www.w3.org/2000/svg" 
     xmlns:xlink="http://www.w3.org/1999/xlink">
<polygon points="58.102,5.001 58.494,5.016 58.884,5.062 59.269,5.139 59.647,5.245 60.015,5.381 60.371,5.545 60.714,5.737 61.040,5.955 61.349,6.198 61.637,6.465 61.904,6.753 62.147,7.062 62.365,7.388 62.557,7.731 62.721,8.087 62.857,8.455 62.963,8.833 63.040,9.218 63.086,9.608 63.102,10.001 63.102,39.052 63.086,39.444 63.040,39.834 62.963,40.219 62.857,40.597 62.721,40.965 62.557,41.321 62.365,41.664 62.147,41.990 61.904,42.299 61.637,42.587 61.349,42.854 61.040,43.097 60.714,43.315 60.371,43.507 60.015,43.671 59.647,43.807 59.269,43.913 58.884,43.990 58.494,44.036 58.101,44.052 10.001,44.052 9.608,44.036 9.218,43.990 8.833,43.913 8.455,43.807 8.087,43.671 7.731,43.507 7.388,43.315 7.062,43.097 6.753,42.854 6.465,42.587 6.198,42.299 5.955,41.990 5.737,41.664 5.545,41.321 5.381,40.965 5.245,40.597 5.139,40.219 5.062,39.834 5.016,39.444 5.000,39.051 5.001,10.001 5.016,9.608 5.062,9.218 5.139,8.833 5.245,8.455 5.381,8.087 5.545,7.731 5.737,7.388 5.955,7.062 6.198,6.753 6.465,6.465 6.753,6.198 7.062,5.955 7.388,5.737 7.731,5.545 8.087,5.381 8.455,5.245 8.833,5.139 9.218,5.062 9.608,5.016 10.001,5.000" style="fill:none;stroke-width:0.050000mm;stroke:black"/>
<polygon points="9.537,37.625 9.119,37.838 8.787,38.170 8.574,38.588 8.501,39.052 8.574,39.515 8.787,39.933 9.119,40.265 9.537,40.478 10.001,40.552 10.464,40.478 10.882,40.265 11.214,39.933 11.427,39.515 11.501,39.052 11.427,38.588 11.214,38.170 10.882,37.838 10.464,37.625 10.001,37.552" style="fill:none;stroke-width:0.050000mm;stroke:black"/>
<polygon points="57.638,37.625 57.220,37.838 56.888,38.170 56.675,38.588 56.602,39.052 56.675,39.515 56.888,39.933 57.220,40.265 57.638,40.478 58.102,40.552 58.565,40.478 58.983,40.265 59.315,39.933 59.528,39.515 59.602,39.052 59.528,38.588 59.315,38.170 58.983,37.838 58.565,37.625 58.102,37.552" style="fill:none;stroke-width:0.050000mm;stroke:black"/>
<polygon points="15.001,15.001 15.001,34.052 53.102,34.052 53.102,15.001" style="fill:none;stroke-width:0.050000mm;stroke:black"/>
<polygon points="9.537,8.574 9.119,8.787 8.787,9.119 8.574,9.537 8.501,10.001 8.574,10.464 8.787,10.882 9.119,11.214 9.537,11.427 10.001,11.501 10.464,11.427 10.882,11.214 11.214,10.882 11.427,10.464 11.501,10.001 11.427,9.537 11.214,9.119 10.882,8.787 10.464,8.574 10.001,8.501" style="fill:none;stroke-width:0.050000mm;stroke:black"/>
<polygon points="57.638,8.574 57.220,8.787 56.888,9.119 56.675,9.537 56.602,10.001 56.675,10.464 56.888,10.882 57.220,11.214 57.638,11.427 58.102,11.501 58.565,11.427 58.983,11.214 59.315,10.882 59.528,10.464 59.602,10.001 59.528,9.537 59.315,9.119 58.983,8.787 58.565,8.574 58.102,8.501" style="fill:none;stroke-width:0.050000mm;stroke:black"/>
</svg>
